<mxfile host="app.diagrams.net" modified="2023-04-09T15:19:17.344Z" agent="5.0 (Macintosh; Intel Mac OS X 10_15_7) AppleWebKit/605.1.15 (KHTML, like Gecko) Version/15.1 Safari/605.1.15" etag="On_rJOiCx8OugybfxTsi" version="21.0.8" type="github">
  <diagram name="Страница 1" id="JfrohsTsCtkI1AvGEfJH">
    <mxGraphModel dx="954" dy="647" grid="1" gridSize="10" guides="1" tooltips="1" connect="1" arrows="1" fold="1" page="1" pageScale="1" pageWidth="827" pageHeight="1169" math="0" shadow="0">
      <root>
        <mxCell id="0" />
        <mxCell id="1" parent="0" />
        <mxCell id="2WdMI717PqglQClT95T5-1" value="" style="html=1;points=[];perimeter=orthogonalPerimeter;outlineConnect=0;targetShapes=umlLifeline;portConstraint=eastwest;newEdgeStyle={&quot;edgeStyle&quot;:&quot;elbowEdgeStyle&quot;,&quot;elbow&quot;:&quot;vertical&quot;,&quot;curved&quot;:0,&quot;rounded&quot;:0};" vertex="1" parent="1">
          <mxGeometry x="70" y="230" width="10" height="310" as="geometry" />
        </mxCell>
        <mxCell id="2WdMI717PqglQClT95T5-4" value="Doctor" style="shape=umlActor;verticalLabelPosition=bottom;verticalAlign=top;html=1;" vertex="1" parent="1">
          <mxGeometry x="60" y="120" width="30" height="60" as="geometry" />
        </mxCell>
        <mxCell id="2WdMI717PqglQClT95T5-6" value="" style="html=1;points=[];perimeter=orthogonalPerimeter;outlineConnect=0;targetShapes=umlLifeline;portConstraint=eastwest;newEdgeStyle={&quot;edgeStyle&quot;:&quot;elbowEdgeStyle&quot;,&quot;elbow&quot;:&quot;vertical&quot;,&quot;curved&quot;:0,&quot;rounded&quot;:0};" vertex="1" parent="1">
          <mxGeometry x="240" y="230" width="10" height="310" as="geometry" />
        </mxCell>
        <mxCell id="2WdMI717PqglQClT95T5-8" value="Search form" style="whiteSpace=wrap;html=1;" vertex="1" parent="1">
          <mxGeometry x="185" y="140" width="120" height="40" as="geometry" />
        </mxCell>
        <mxCell id="2WdMI717PqglQClT95T5-9" value="" style="html=1;points=[];perimeter=orthogonalPerimeter;outlineConnect=0;targetShapes=umlLifeline;portConstraint=eastwest;newEdgeStyle={&quot;edgeStyle&quot;:&quot;elbowEdgeStyle&quot;,&quot;elbow&quot;:&quot;vertical&quot;,&quot;curved&quot;:0,&quot;rounded&quot;:0};" vertex="1" parent="1">
          <mxGeometry x="404" y="230" width="10" height="310" as="geometry" />
        </mxCell>
        <mxCell id="2WdMI717PqglQClT95T5-10" value="List of founded patients" style="whiteSpace=wrap;html=1;" vertex="1" parent="1">
          <mxGeometry x="354" y="140" width="120" height="40" as="geometry" />
        </mxCell>
        <mxCell id="2WdMI717PqglQClT95T5-11" value="" style="html=1;points=[];perimeter=orthogonalPerimeter;outlineConnect=0;targetShapes=umlLifeline;portConstraint=eastwest;newEdgeStyle={&quot;edgeStyle&quot;:&quot;elbowEdgeStyle&quot;,&quot;elbow&quot;:&quot;vertical&quot;,&quot;curved&quot;:0,&quot;rounded&quot;:0};" vertex="1" parent="1">
          <mxGeometry x="570" y="230" width="10" height="310" as="geometry" />
        </mxCell>
        <mxCell id="2WdMI717PqglQClT95T5-12" value="Patient Page&lt;br&gt;(View)" style="whiteSpace=wrap;html=1;" vertex="1" parent="1">
          <mxGeometry x="515" y="140" width="120" height="40" as="geometry" />
        </mxCell>
        <mxCell id="2WdMI717PqglQClT95T5-13" value="" style="html=1;points=[];perimeter=orthogonalPerimeter;outlineConnect=0;targetShapes=umlLifeline;portConstraint=eastwest;newEdgeStyle={&quot;edgeStyle&quot;:&quot;elbowEdgeStyle&quot;,&quot;elbow&quot;:&quot;vertical&quot;,&quot;curved&quot;:0,&quot;rounded&quot;:0};" vertex="1" parent="1">
          <mxGeometry x="730" y="230" width="10" height="310" as="geometry" />
        </mxCell>
        <mxCell id="2WdMI717PqglQClT95T5-14" value="Patient Page&lt;br&gt;(Editing)" style="whiteSpace=wrap;html=1;" vertex="1" parent="1">
          <mxGeometry x="690" y="140" width="120" height="40" as="geometry" />
        </mxCell>
        <mxCell id="2WdMI717PqglQClT95T5-15" value="" style="endArrow=classic;html=1;rounded=0;" edge="1" parent="1" source="2WdMI717PqglQClT95T5-1">
          <mxGeometry width="50" height="50" relative="1" as="geometry">
            <mxPoint x="420" y="440" as="sourcePoint" />
            <mxPoint x="240" y="270" as="targetPoint" />
            <Array as="points">
              <mxPoint x="210" y="270" />
            </Array>
          </mxGeometry>
        </mxCell>
        <mxCell id="2WdMI717PqglQClT95T5-17" value="Find Patient()" style="text;html=1;strokeColor=none;fillColor=none;align=center;verticalAlign=middle;whiteSpace=wrap;rounded=0;" vertex="1" parent="1">
          <mxGeometry x="120" y="240" width="85" height="30" as="geometry" />
        </mxCell>
        <mxCell id="2WdMI717PqglQClT95T5-18" value="" style="endArrow=classic;html=1;rounded=0;" edge="1" parent="1">
          <mxGeometry width="50" height="50" relative="1" as="geometry">
            <mxPoint x="250" y="290" as="sourcePoint" />
            <mxPoint x="400" y="290" as="targetPoint" />
            <Array as="points">
              <mxPoint x="380" y="290" />
            </Array>
          </mxGeometry>
        </mxCell>
        <mxCell id="2WdMI717PqglQClT95T5-20" value="Validate&lt;br&gt;&amp;nbsp;Search" style="html=1;align=left;spacingLeft=2;endArrow=block;rounded=0;edgeStyle=orthogonalEdgeStyle;curved=0;rounded=0;" edge="1" target="2WdMI717PqglQClT95T5-6" parent="1" source="2WdMI717PqglQClT95T5-6">
          <mxGeometry x="0.0476" relative="1" as="geometry">
            <mxPoint x="430" y="390" as="sourcePoint" />
            <Array as="points">
              <mxPoint x="330" y="290" />
              <mxPoint x="330" y="340" />
            </Array>
            <mxPoint as="offset" />
          </mxGeometry>
        </mxCell>
        <mxCell id="2WdMI717PqglQClT95T5-21" value="" style="endArrow=classic;html=1;rounded=0;" edge="1" parent="1" target="2WdMI717PqglQClT95T5-11">
          <mxGeometry width="50" height="50" relative="1" as="geometry">
            <mxPoint x="414" y="320" as="sourcePoint" />
            <mxPoint x="544" y="340" as="targetPoint" />
            <Array as="points">
              <mxPoint x="544" y="320" />
            </Array>
          </mxGeometry>
        </mxCell>
        <mxCell id="2WdMI717PqglQClT95T5-22" value="Check Patient Info()" style="text;html=1;strokeColor=none;fillColor=none;align=center;verticalAlign=middle;whiteSpace=wrap;rounded=0;" vertex="1" parent="1">
          <mxGeometry x="440" y="290" width="110" height="30" as="geometry" />
        </mxCell>
        <mxCell id="2WdMI717PqglQClT95T5-23" value="return" style="html=1;verticalAlign=bottom;endArrow=open;dashed=1;endSize=8;edgeStyle=elbowEdgeStyle;elbow=vertical;curved=0;rounded=0;" edge="1" parent="1" source="2WdMI717PqglQClT95T5-6">
          <mxGeometry relative="1" as="geometry">
            <mxPoint x="160" y="340" as="sourcePoint" />
            <mxPoint x="80" y="340" as="targetPoint" />
          </mxGeometry>
        </mxCell>
        <mxCell id="2WdMI717PqglQClT95T5-24" value="return" style="html=1;verticalAlign=bottom;endArrow=open;dashed=1;endSize=8;edgeStyle=elbowEdgeStyle;elbow=vertical;curved=0;rounded=0;" edge="1" parent="1" source="2WdMI717PqglQClT95T5-11">
          <mxGeometry relative="1" as="geometry">
            <mxPoint x="242.5" y="380" as="sourcePoint" />
            <mxPoint x="82.5" y="380" as="targetPoint" />
          </mxGeometry>
        </mxCell>
        <mxCell id="2WdMI717PqglQClT95T5-25" value="" style="endArrow=classic;html=1;rounded=0;" edge="1" parent="1" target="2WdMI717PqglQClT95T5-13">
          <mxGeometry width="50" height="50" relative="1" as="geometry">
            <mxPoint x="413.5" y="420" as="sourcePoint" />
            <mxPoint x="569.5" y="420" as="targetPoint" />
            <Array as="points">
              <mxPoint x="543.5" y="420" />
            </Array>
          </mxGeometry>
        </mxCell>
        <mxCell id="2WdMI717PqglQClT95T5-26" value="Update Patient Info()" style="text;html=1;strokeColor=none;fillColor=none;align=center;verticalAlign=middle;whiteSpace=wrap;rounded=0;" vertex="1" parent="1">
          <mxGeometry x="430" y="390" width="120" height="30" as="geometry" />
        </mxCell>
        <mxCell id="2WdMI717PqglQClT95T5-27" value="return" style="html=1;verticalAlign=bottom;endArrow=open;dashed=1;endSize=8;edgeStyle=elbowEdgeStyle;elbow=vertical;curved=0;rounded=0;" edge="1" parent="1" source="2WdMI717PqglQClT95T5-13">
          <mxGeometry relative="1" as="geometry">
            <mxPoint x="567.5" y="470" as="sourcePoint" />
            <mxPoint x="80" y="470" as="targetPoint" />
          </mxGeometry>
        </mxCell>
      </root>
    </mxGraphModel>
  </diagram>
</mxfile>
